<mxfile host="app.diagrams.net" modified="2023-07-11T02:13:34.218Z" agent="Mozilla/5.0 (X11; Linux x86_64) AppleWebKit/537.36 (KHTML, like Gecko) Chrome/114.0.0.0 Safari/537.36" version="21.6.1" etag="C0TD92VvrA33KbWkSS7G" type="github">
  <diagram name="第 1 页" id="VgBMnZDGhOuevuqgc2q4">
    <mxGraphModel>
      <root>
        <mxCell id="0" />
        <mxCell id="1" parent="0" />
      </root>
    </mxGraphModel>
  </diagram>
</mxfile>
